<svg width="16" height="19" viewBox="0 0 16 19" fill="none" xmlns="http://www.w3.org/2000/svg">
<path d="M13.625 9H2.375V4H13.625M12.2188 15C11.8458 15 11.4881 14.842 11.2244 14.5607C10.9607 14.2794 10.8125 13.8978 10.8125 13.5C10.8125 13.1022 10.9607 12.7206 11.2244 12.4393C11.4881 12.158 11.8458 12 12.2188 12C12.5917 12 12.9494 12.158 13.2131 12.4393C13.4768 12.7206 13.625 13.1022 13.625 13.5C13.625 13.8978 13.4768 14.2794 13.2131 14.5607C12.9494 14.842 12.5917 15 12.2188 15ZM3.78125 15C3.40829 15 3.0506 14.842 2.78688 14.5607C2.52316 14.2794 2.375 13.8978 2.375 13.5C2.375 13.1022 2.52316 12.7206 2.78688 12.4393C3.0506 12.158 3.40829 12 3.78125 12C4.15421 12 4.5119 12.158 4.77562 12.4393C5.03934 12.7206 5.1875 13.1022 5.1875 13.5C5.1875 13.8978 5.03934 14.2794 4.77562 14.5607C4.5119 14.842 4.15421 15 3.78125 15ZM0.5 14C0.5 14.88 0.865625 15.67 1.4375 16.22V18C1.4375 18.2652 1.53627 18.5196 1.71209 18.7071C1.8879 18.8946 2.12636 19 2.375 19H3.3125C3.56114 19 3.7996 18.8946 3.97541 18.7071C4.15123 18.5196 4.25 18.2652 4.25 18V17H11.75V18C11.75 18.2652 11.8488 18.5196 12.0246 18.7071C12.2004 18.8946 12.4389 19 12.6875 19H13.625C13.8736 19 14.1121 18.8946 14.2879 18.7071C14.4637 18.5196 14.5625 18.2652 14.5625 18V16.22C15.1344 15.67 15.5 14.88 15.5 14V4C15.5 0.5 12.1438 0 8 0C3.85625 0 0.5 0.5 0.5 4V14Z" fill="#212121"/>
</svg>
