<svg width="16" height="19" viewBox="0 0 16 19" fill="none" xmlns="http://www.w3.org/2000/svg">
<path d="M11.4091 3.56111H13.4545L15.5 8.37572V15.4315H14.1125C14.0304 16.4204 13.7464 17.3247 13.3125 17.9788C12.8786 18.6328 12.3239 18.9928 11.75 18.9928C11.1761 18.9928 10.6214 18.6328 10.1875 17.9788C9.75359 17.3247 9.46959 16.4204 9.3875 15.4315H5.93068C5.84963 16.4218 5.56606 17.328 5.13205 17.9835C4.69805 18.6391 4.14276 19 3.56818 19C2.9936 19 2.43831 18.6391 2.00431 17.9835C1.57031 17.328 1.28674 16.4218 1.20568 15.4315H0.5V1.18704C0.5 0.872214 0.571834 0.570287 0.6997 0.347675C0.827566 0.125063 1.00099 0 1.18182 0H10.7273C10.9081 0 11.0815 0.125063 11.2094 0.347675C11.3373 0.570287 11.4091 0.872214 11.4091 1.18704V3.56111ZM11.4091 5.93518V9.49628H14.1364V9.15798L12.7673 5.93518H11.4091Z" fill="#212121"/>
</svg>
