<svg width="21" height="25" viewBox="0 0 21 25" fill="none" xmlns="http://www.w3.org/2000/svg">
<path d="M3.86364 2H12.7273L14.7727 8.33333H16.1364C16.8932 8.33333 17.5 9.7425 17.5 11.5V16.25H16.1364C16.1364 17.5098 15.9209 18.718 15.5373 19.6088C15.1537 20.4996 14.6334 21 14.0909 21C13.5484 21 13.0282 20.4996 12.6446 19.6088C12.261 18.718 12.0455 17.5098 12.0455 16.25H7.95455C7.95455 17.5098 7.73904 18.718 7.35545 19.6088C6.97185 20.4996 6.45158 21 5.90909 21C5.3666 21 4.84633 20.4996 4.46274 19.6088C4.07914 18.718 3.86364 17.5098 3.86364 16.25H2.5V5.16667C2.5 3.40917 3.10682 2 3.86364 2ZM3.52273 4.375V8.33333H8.97727V4.375H3.52273ZM10 4.375V8.33333H13.5045L12.2159 4.375H10ZM5.90909 13.875C5.63785 13.875 5.37771 14.1252 5.18591 14.5706C4.99411 15.016 4.88636 15.6201 4.88636 16.25C4.88636 16.8799 4.99411 17.484 5.18591 17.9294C5.37771 18.3748 5.63785 18.625 5.90909 18.625C6.18034 18.625 6.44047 18.3748 6.63227 17.9294C6.82407 17.484 6.93182 16.8799 6.93182 16.25C6.93182 15.6201 6.82407 15.016 6.63227 14.5706C6.44047 14.1252 6.18034 13.875 5.90909 13.875ZM14.0909 13.875C13.8197 13.875 13.5595 14.1252 13.3677 14.5706C13.1759 15.016 13.0682 15.6201 13.0682 16.25C13.0682 16.8799 13.1759 17.484 13.3677 17.9294C13.5595 18.3748 13.8197 18.625 14.0909 18.625C14.3622 18.625 14.6223 18.3748 14.8141 17.9294C15.0059 17.484 15.1136 16.8799 15.1136 16.25C15.1136 15.6201 15.0059 15.016 14.8141 14.5706C14.6223 14.1252 14.3622 13.875 14.0909 13.875Z" fill="white"/>
</svg>
