<svg width="21" height="25" viewBox="0 0 21 25" fill="none" xmlns="http://www.w3.org/2000/svg">
<path d="M9.99984 2C7.38696 2 5.18323 2.15912 4.85447 2.37048C4.28021 2.5866 3.84808 4.025 3.84664 5.73176V6.5796H3.69016C3.67413 6.54065 3.65283 6.50462 3.62699 6.47273C3.69477 6.38665 3.732 6.27642 3.73179 6.16241V5.73176C3.74092 5.63102 3.71398 5.53032 3.65671 5.45119C3.59944 5.37206 3.51638 5.32075 3.42528 5.30824H2.80938C2.71775 5.32094 2.63428 5.37272 2.57685 5.45248C2.51943 5.53223 2.49261 5.63363 2.50215 5.73493V5.73334V6.16399C2.50215 6.28274 2.54163 6.39198 2.60696 6.47511L2.60624 6.47431C2.53845 6.56039 2.50123 6.67063 2.50144 6.78463V8.91096C2.5 8.92284 2.5 8.9355 2.5 8.94896C2.5 9.14687 2.63423 9.31074 2.80795 9.33449H3.42456C3.4823 9.33121 3.53797 9.30969 3.58494 9.2725C3.6319 9.2353 3.66818 9.184 3.68944 9.1247L3.69016 9.12233H3.84664V12.9396C3.84664 13.0908 3.9938 13.2309 4.2314 13.3061V13.8017C3.89186 13.85 3.65714 14.0186 3.65714 14.2117V18.4549C3.633 18.9807 3.77005 19.5002 4.0462 19.9297L4.04189 19.9226V20.6517C4.04189 20.844 4.1833 21 4.35773 21H5.64838C5.73215 21 5.81249 20.9633 5.87172 20.898C5.93095 20.8327 5.96423 20.7441 5.96423 20.6517V20.1522H14.0376V20.6517C14.0376 20.844 14.179 21 14.3535 21H15.6441C15.6856 21 15.7267 20.991 15.765 20.9735C15.8033 20.956 15.8381 20.9303 15.8674 20.898C15.8968 20.8656 15.92 20.8272 15.9359 20.785C15.9518 20.7427 15.96 20.6974 15.96 20.6517V19.9234C16.2345 19.4941 16.37 18.9755 16.3447 18.4509V18.4565V14.2133C16.3447 14.0202 16.1071 13.8515 15.7704 13.8033V13.3077C16.008 13.2325 16.1545 13.0924 16.1552 12.9412V9.1255H16.3117C16.3548 9.24582 16.4567 9.33053 16.5766 9.33765H17.1903C17.2819 9.32495 17.3654 9.27317 17.4228 9.19341C17.4803 9.11365 17.5071 9.01226 17.4975 8.91096V8.91255V6.78622C17.4977 6.67198 17.4605 6.5615 17.3927 6.47511L17.3935 6.4759C17.4612 6.38982 17.4985 6.27958 17.4983 6.16558V5.73651C17.5074 5.63577 17.4804 5.53507 17.4232 5.45594C17.3659 5.37681 17.2828 5.3255 17.1917 5.31299H16.5751C16.4835 5.32569 16.4 5.37747 16.3426 5.45723C16.2852 5.53698 16.2584 5.63838 16.2679 5.73968V5.73809V6.16874C16.2679 6.28749 16.3074 6.39673 16.3727 6.47986L16.372 6.47906C16.3468 6.51017 16.3258 6.5451 16.3095 6.58277L16.3088 6.58514H16.1523V5.73334C16.1523 4.01787 15.7159 2.57314 15.1373 2.36811C14.7856 2.15754 12.5926 2.00158 9.99984 2.00158V2ZM4.72526 4.45961H15.2737C15.4596 4.45961 15.6147 4.60527 15.6506 4.79922L15.6513 4.80159C15.7245 5.20532 15.7661 5.67001 15.7661 6.14579V6.17587V6.17428V9.1247C15.7661 9.35903 15.5939 9.54902 15.3814 9.54902H4.61615C4.51411 9.54902 4.41624 9.50431 4.34409 9.42474C4.27193 9.34517 4.2314 9.23724 4.2314 9.1247V6.14658C4.2314 5.67081 4.27303 5.20612 4.35271 4.75647L4.34625 4.80159C4.36354 4.70519 4.41063 4.61839 4.4795 4.55602C4.54836 4.49365 4.63472 4.45957 4.72382 4.45961H4.72526ZM5.19257 13.7898H6.01663C6.11928 13.7898 6.20255 13.8785 6.20829 13.9901V13.9909L6.34539 16.7473V16.7584C6.34539 16.8756 6.25925 16.9706 6.15302 16.9706H5.19257C5.14154 16.9706 5.09261 16.9482 5.05653 16.9084C5.02046 16.8687 5.00019 16.8147 5.00019 16.7584V14.002C5.00019 13.8848 5.08633 13.7898 5.19257 13.7898ZM13.9823 13.7898H14.8064C14.9126 13.7898 14.9988 13.8848 14.9988 14.002V16.7561C14.9988 16.8732 14.9126 16.9682 14.8064 16.9682H13.8452C13.7942 16.9682 13.7453 16.9459 13.7092 16.9061C13.6731 16.8663 13.6529 16.8123 13.6529 16.7561V16.7442L13.79 13.9885C13.7971 13.8777 13.8804 13.7906 13.9816 13.7906L13.9823 13.7898ZM6.82705 14.2964H13.1726C13.2258 14.2964 13.2688 14.3439 13.2688 14.4025V14.5292C13.2688 14.5878 13.2258 14.6353 13.1726 14.6353H6.82705C6.80154 14.6353 6.77708 14.6241 6.75904 14.6042C6.741 14.5843 6.73087 14.5573 6.73087 14.5292V14.4025C6.73087 14.3439 6.77394 14.2964 6.82705 14.2964ZM6.8651 15.0596H13.1339C13.187 15.0596 13.2301 15.1071 13.2301 15.1657V15.2923C13.2301 15.3509 13.187 15.3984 13.1339 15.3984H6.8651C6.83959 15.3984 6.81512 15.3872 6.79708 15.3673C6.77904 15.3474 6.76891 15.3205 6.76891 15.2923V15.1657C6.76891 15.1071 6.81198 15.0596 6.8651 15.0596ZM6.90386 15.8227H13.0958C13.1489 15.8227 13.192 15.8702 13.192 15.9288V16.0555C13.192 16.114 13.1489 16.1615 13.0958 16.1615H6.90386C6.87915 16.1616 6.8554 16.151 6.83759 16.1321C6.81979 16.1132 6.80932 16.0874 6.80839 16.0602V15.9335C6.80839 15.875 6.85146 15.8275 6.90458 15.8275L6.90386 15.8227ZM6.94262 16.5859H13.0571C13.1102 16.5859 13.1533 16.6333 13.1533 16.6919V16.8186C13.1533 16.8772 13.1102 16.9247 13.0571 16.9247H6.94262C6.91711 16.9247 6.89265 16.9135 6.87461 16.8936C6.85657 16.8737 6.84644 16.8467 6.84644 16.8186V16.6919C6.84644 16.6333 6.88951 16.5859 6.94262 16.5859Z" fill="#212121"/>
</svg>
