<svg width="16" height="19" viewBox="0 0 16 19" fill="none" xmlns="http://www.w3.org/2000/svg">
<path d="M1.86364 0H10.7273L12.7727 6.33333H14.1364C14.8932 6.33333 15.5 7.7425 15.5 9.5V14.25H14.1364C14.1364 15.5098 13.9209 16.718 13.5373 17.6088C13.1537 18.4996 12.6334 19 12.0909 19C11.5484 19 11.0282 18.4996 10.6446 17.6088C10.261 16.718 10.0455 15.5098 10.0455 14.25H5.95455C5.95455 15.5098 5.73904 16.718 5.35545 17.6088C4.97185 18.4996 4.45158 19 3.90909 19C3.3666 19 2.84633 18.4996 2.46274 17.6088C2.07914 16.718 1.86364 15.5098 1.86364 14.25H0.5V3.16667C0.5 1.40917 1.10682 0 1.86364 0ZM1.52273 2.375V6.33333H6.97727V2.375H1.52273ZM8 2.375V6.33333H11.5045L10.2159 2.375H8ZM3.90909 11.875C3.63785 11.875 3.37771 12.1252 3.18591 12.5706C2.99411 13.016 2.88636 13.6201 2.88636 14.25C2.88636 14.8799 2.99411 15.484 3.18591 15.9294C3.37771 16.3748 3.63785 16.625 3.90909 16.625C4.18034 16.625 4.44047 16.3748 4.63227 15.9294C4.82407 15.484 4.93182 14.8799 4.93182 14.25C4.93182 13.6201 4.82407 13.016 4.63227 12.5706C4.44047 12.1252 4.18034 11.875 3.90909 11.875ZM12.0909 11.875C11.8197 11.875 11.5595 12.1252 11.3677 12.5706C11.1759 13.016 11.0682 13.6201 11.0682 14.25C11.0682 14.8799 11.1759 15.484 11.3677 15.9294C11.5595 16.3748 11.8197 16.625 12.0909 16.625C12.3622 16.625 12.6223 16.3748 12.8141 15.9294C13.0059 15.484 13.1136 14.8799 13.1136 14.25C13.1136 13.6201 13.0059 13.016 12.8141 12.5706C12.6223 12.1252 12.3622 11.875 12.0909 11.875Z" fill="black"/>
</svg>
